<?xml version="1.0" encoding="UTF-8" standalone="no"?>
<svg
   width="46"
   height="64"
   viewBox="0 0 127 175.41875"
   version="1.1"
   id="svg1"
   xml:space="preserve"
   fill="currentColor"
   xmlns="http://www.w3.org/2000/svg"
   xmlns:svg="http://www.w3.org/2000/svg"><g
   id="layer1"><path
     d="m 8.9754961,174.9605 c -2.919692,-0.78459 -5.939014,-3.19714 -7.376453,-5.89405 -1.749826,-3.28301 -1.639024,1.78832 -1.562712,-71.523735 l 0.06921,-66.488272 0.602925,-1.5875 c 1.199405,-3.15803 3.473931,-5.83159 6.195147,-7.28198 2.453645,-1.30778 4.3387669,-1.5718 11.2597409,-1.57697 l 6.151562,-0.005 v 3.384 c 0,3.71003 0.346628,5.52576 1.507471,7.89651 1.394109,2.84714 4.831923,6.10685 8.017529,7.60217 l 1.719792,0.80727 14.419791,0.2246 c 7.93089,0.12353 20.253854,0.16665 27.384374,0.0958 14.18695,-0.14092 14.37913,-0.16084 17.24476,-1.78721 3.09869,-1.75863 5.914697,-5.19618 7.137797,-8.7132 0.50836,-1.46179 0.66898,-2.59765 0.80163,-5.66901 l 0.1659,-3.84094 5.84579,0.002 c 3.21518,10e-4 6.61969,0.12268 7.56558,0.27018 5.13337,0.80049 9.35421,4.96554 10.47386,10.33542 0.32843,1.57514 0.37233,11.131882 0.31199,67.910152 l -0.0702,66.077055 -0.56741,1.65315 c -1.43554,4.18242 -4.79975,7.31785 -8.85487,8.2527 -0.76315,0.17594 -19.295947,0.26392 -54.077721,0.25672 -45.724161,-0.009 -53.113579,-0.0639 -54.3654509,-0.40027 z M 109.81193,160.98779 c 1.13211,-0.47302 2.15558,-1.41711 2.78208,-2.56626 0.47032,-0.8627 0.49117,-3.08411 0.55709,-59.332235 0.0452,-38.60107 -0.0219,-58.771742 -0.19788,-59.425152 -0.81954,-3.04355 -4.18178,-5.02449 -7.47838,-4.40604 -0.77597,0.14557 -0.96206,0.33037 -1.26889,1.2601 -0.94203,2.85435 -4.490157,6.582722 -7.714127,8.105972 -4.02434,1.90141 -1.60082,1.75953 -31.69566,1.85561 -19.811254,0.0633 -27.654561,0.003 -29.104165,-0.22351 -5.663638,-0.88504 -10.114904,-4.11242 -12.84963,-9.316612 l -0.974908,-1.85525 -2.107322,0.14444 c -2.63027,0.18028 -4.168719,1.02858 -5.360104,2.95556 l -0.800745,1.29514 -0.07237,58.625992 c -0.07998,64.788085 -0.207252,59.879635 1.596996,61.589105 1.887705,1.78855 -2.287927,1.6448 48.118584,1.65649 38.773491,0.009 45.809681,-0.0459 46.569431,-0.36335 z M 37.094246,33.871743 c -2.625106,-0.91219 -4.516456,-2.65152 -5.70196,-5.24366 -0.495331,-1.08306 -0.599075,-1.85243 -0.680694,-5.04812 l -0.09629,-3.77031 h 8.187757 8.18776 l -0.009,-3.10885 c -0.008,-2.67476 0.0891,-3.40441 0.69466,-5.22552 0.89925,-2.70409 2.34992,-4.904689 4.68591,-7.108349 3.02947,-2.857846 6.93356,-4.40593898 11.08727,-4.39643598 5.100704,0.01167 9.312754,1.98710198 12.683564,5.94852998 2.77341,3.259345 3.85711,6.487985 3.70171,11.028315 l -0.098,2.86231 h 8.14014 c 6.3274,0 8.14361,0.0737 8.15573,0.33073 0.14151,3.00038 -0.0601,7.07491 -0.40081,8.09944 -0.68704,2.06612 -2.49319,4.09065 -4.55508,5.10581 l -1.7951,0.88381 -25.40574,0.0602 c -23.907347,0.0567 -25.486885,0.032 -26.781615,-0.4179 z m 29.042247,-13.46678 c 2.45116,-1.24264 3.62401,-3.94976 2.89562,-6.68349 -0.42625,-1.59974 -2.34945,-3.47484 -4.05323,-3.9518705 -4.290034,-1.2011295 -8.239094,2.7578205 -7.072504,7.0902105 0.39971,1.48439 2.09991,3.33065 3.53565,3.83938 1.7228,0.61045 3.077444,0.52555 4.694464,-0.29423 z"
     id="path1" /></g></svg>
