<?xml version="1.0" encoding="UTF-8" standalone="no"?>
<svg
   width="92"
   height="128"
   viewBox="0 0 254 256.41875"
   version="1.1"
   id="svg1"
   xml:space="preserve"
   fill="currentColor"
   sodipodi:docname="stacked_clipboard.svg"
   inkscape:version="1.3.2 (091e20e, 2023-11-25, custom)"
   xmlns:inkscape="http://www.inkscape.org/namespaces/inkscape"
   xmlns:sodipodi="http://sodipodi.sourceforge.net/DTD/sodipodi-0.dtd"
   xmlns="http://www.w3.org/2000/svg"
   xmlns:svg="http://www.w3.org/2000/svg"><sodipodi:namedview
   id="namedview1"
   pagecolor="#ffffff"
   bordercolor="#000000"
   borderopacity="0.25"
   inkscape:showpageshadow="2"
   inkscape:pageopacity="0.0"
   inkscape:pagecheckerboard="0"
   inkscape:deskcolor="#d1d1d1"
   inkscape:zoom="6.3515625"
   inkscape:cx="14.642066"
   inkscape:cy="67.778598"
   inkscape:window-width="1920"
   inkscape:window-height="1009"
   inkscape:window-x="1912"
   inkscape:window-y="-4"
   inkscape:window-maximized="1"
   inkscape:current-layer="layer1" />
  <defs
   id="defs1"><inkscape:path-effect
     effect="powerclip"
     id="path-effect1"
     is_visible="true"
     lpeversion="1"
     inverse="true"
     flatten="false"
     hide_clip="false"
     message="Use fill-rule evenodd on &lt;b&gt;fill and stroke&lt;/b&gt; dialog if no flatten result after convert clip to paths." /><inkscape:path-effect
     effect="powerclip"
     id="path-effect4"
     is_visible="true"
     lpeversion="1"
     inverse="true"
     flatten="false"
     hide_clip="false"
     message="Use fill-rule evenodd on &lt;b&gt;fill and stroke&lt;/b&gt; dialog if no flatten result after convert clip to paths." /><clipPath
     clipPathUnits="userSpaceOnUse"
     id="clipPath1"><rect
       style="display:none;fill:#000000;stroke-width:2.76087"
       id="rect1"
       width="99.959175"
       height="126.31591"
       x="-14.242327"
       y="6.4886093"
       d="M -14.242327,6.4886093 H 85.716848 V 132.80452 h -99.959175 z" /><path
       id="lpe_path-effect1"
       style="display:block;fill:#000000;stroke-width:2.76087"
       class="powerclip"
       d="M -5.6000633,14.67981 H 130.39731 V 179.43869 H -5.6000633 Z M -14.242327,6.4886093 V 132.80452 H 85.716848 V 6.4886093 Z" /></clipPath></defs>
  <g
   id="layer1">
    <!-- Original Clipboard -->
    <path
   d="M 20.003132,233.03226 C 15.716416,231.78852 11.283422,227.96409 9.1729626,223.68887 6.603853,218.48455 6.7665338,226.52376 6.8785757,110.3076 L 6.9801905,4.9086782 7.8654093,2.3921318 c 1.7609775,-5.0061901 5.1004547,-9.2443866 9.0957677,-11.5435823 3.60246,-2.0731265 6.370213,-2.4916575 16.531646,-2.4998525 l 9.031774,-0.008 v 5.3644049 c 0,5.88123489 0.508922,8.7595766 2.213283,12.517751 2.046841,4.5133601 7.094269,9.6807361 11.771401,12.0511551 l 2.525015,1.279706 21.171259,0.356042 c 11.6442,0.195823 29.736875,0.264177 40.205965,0.151864 20.8294,-0.223389 21.11156,-0.254967 25.31891,-2.833131 4.54951,-2.787825 8.684,-8.2371177 10.47976,-13.8123895 0.74638,-2.3172675 0.9822,-4.11786153 1.17696,-8.9866606 l 0.24357,-6.0887569 8.58285,0.0032 c 4.72056,0.0016 9.71908,0.194475 11.10785,0.428296 7.53686,1.2689567 13.73392,7.8715014 15.37781,16.3839747 0.4822,2.4969532 0.54666,17.6465463 0.45806,107.6529173 l -0.10306,104.74705 -0.83308,2.62061 c -2.10768,6.63009 -7.04703,11.60045 -13.0008,13.0824 -1.12046,0.2789 -28.33047,0.41837 -79.397356,0.40695 -67.132601,-0.0142 -77.981805,-0.10129 -79.819815,-0.63451 z M 168.05203,210.88237 c 1.66217,-0.74985 3.16484,-2.24644 4.08467,-4.0681 0.69052,-1.36757 0.72114,-4.88901 0.81793,-94.05499 0.0664,-61.191411 -0.0322,-93.166481 -0.29054,-94.202283 -1.20324,-4.824715 -6.13972,-7.964951 -10.97981,-6.984568 -1.13929,0.230761 -1.41252,0.52371 -1.863,1.997543 -1.3831,4.524789 -6.59248,10.4351 -11.32594,12.849796 -5.90857,3.014164 -2.35034,2.789252 -46.53584,2.941561 C 72.872455,29.461676 61.356845,29.36608 59.228525,29.007015 50.913125,27.604027 44.377737,22.4879 40.36259,14.238081 l -1.431369,-2.940991 -3.093988,0.228972 c -3.861784,0.285783 -6.120548,1.630531 -7.869749,4.685229 l -1.17566,2.053089 -0.106254,92.93544 c -0.117427,102.70373 -0.304289,94.92274 2.344722,97.63262 2.771545,2.83527 -3.359154,2.60739 70.648106,2.62592 56.927572,0.0143 67.258152,-0.0727 68.373632,-0.57599 z M 61.287317,9.374736 C 57.433114,7.9287085 54.656219,5.1714767 52.915651,1.0623501 52.188403,-0.65454521 52.036084,-1.87417 51.916251,-6.9400599 L 51.774876,-12.916853 H 63.79621 75.817548 l -0.01322,-4.928229 c -0.01174,-4.240099 0.130816,-5.396758 1.019904,-8.283629 1.320287,-4.286592 3.450173,-7.77504 6.879897,-11.268338 4.447892,-4.530332 10.17991,-6.984408 16.278422,-6.969344 7.488899,0.0185 13.673059,3.150006 18.622119,9.429764 4.07195,5.166797 5.66305,10.28492 5.43488,17.482369 l -0.14388,4.537407 h 11.95142 c 9.28993,0 11.95651,0.116832 11.97431,0.524281 0.20776,4.7562806 -0.0882,11.215331 -0.58847,12.8394416 -1.00872,3.275267 -3.66053,6.4846043 -6.68781,8.0938617 l -2.63558,1.4010393 -37.30092,0.09543 c -35.100974,0.08988 -37.420064,0.05072 -39.320998,-0.6624644 z m 42.640063,-21.347889 c 3.59882,-1.969864 5.3208,-6.26126 4.25138,-10.59484 -0.62583,-2.535948 -3.44949,-5.508405 -5.95099,-6.264606 -6.298667,-1.904062 -12.096702,4.371768 -10.38391,11.239584 0.586864,2.353093 3.083101,5.279832 5.191075,6.086284 2.52943,0.967701 4.518325,0.833115 6.892445,-0.466422 z"
   id="path1"
   sodipodi:nodetypes="csscssccssscscsssccssscsscccssccscsccscsscsssscsscccccsssccsccscccccssssc"
   style="stroke-width:1.5256" />

    <!-- Stacked Clipboard (Duplicated and shifted) -->
    <g
   transform="matrix(1.564093,0,0,1.7017075,51.822715,0.34914018)"
   id="g1"> <!-- Adjust this translation to stack as needed -->
      <path
   d="m 0.6510553,20.70219 93.5650027,8.9497 m -0.922086,-2.151534 c 0.50836,-1.46179 0.577484,0.477707 0.494268,-2.59539 m -1.844173,-5.225156 1.702711,0.0011 13.376162,0.002 c 3.21518,0.001 6.61969,0.12268 7.56558,0.27018 5.13337,0.80049 9.35421,4.96554 10.47386,10.33542 0.32843,1.57514 0.37233,11.131882 0.31199,67.910152 l -0.0702,66.077048 -0.56741,1.65315 c -1.43554,4.18242 -4.79975,7.31785 -8.85487,8.2527 -0.76315,0.17594 -19.295948,0.26392 -54.077722,0.25672 -45.724161,-0.009 -53.1135785,-0.0639 -54.3654504,-0.40027 l -3.2e-5,4.1e-4 c -2.919692,-0.78459 -5.939014,-3.19714 -7.376453,-5.89405 -1.749826,-3.28301 0.5125107,-74.130112 0.5888227,-147.442167 M 18.735453,34.273895 c -0.07998,64.788085 -4.451415,122.533775 -2.647167,124.243245 1.887705,1.78855 -4.789109,1.90023 45.617402,1.91192 38.773492,0.009 45.809682,-0.0459 46.569432,-0.36335 1.13211,-0.47302 2.15558,-1.41711 2.78208,-2.56626 0.47032,-0.8627 0.49117,-3.08411 0.55709,-59.332228 0.0452,-38.60107 -0.0219,-58.771742 -0.19788,-59.425152 -0.81954,-3.04355 -4.18178,-5.02449 -7.47838,-4.40604"
   id="path2"
   sodipodi:nodetypes="cccccccssscsscccsccssssccc"
   clip-path="url(#clipPath1)"
   inkscape:path-effect="#path-effect1"
   inkscape:original-d="m 0.6510553,20.70219 93.5650027,8.9497 m -0.922086,-2.151534 c 0.50836,-1.46179 0.577484,0.477707 0.494268,-2.59539 m -1.844173,-5.225156 1.702711,0.0011 13.376162,0.002 c 3.21518,0.001 6.61969,0.12268 7.56558,0.27018 5.13337,0.80049 9.35421,4.96554 10.47386,10.33542 0.32843,1.57514 0.37233,11.131882 0.31199,67.910152 l -0.0702,66.077048 -0.56741,1.65315 c -1.43554,4.18242 -4.79975,7.31785 -8.85487,8.2527 -0.76315,0.17594 -19.295948,0.26392 -54.077722,0.25672 -45.724161,-0.009 -53.1135785,-0.0639 -54.3654504,-0.40027 l -3.2e-5,4.1e-4 c -2.919692,-0.78459 -5.939014,-3.19714 -7.376453,-5.89405 -1.749826,-3.28301 0.5125107,-74.130112 0.5888227,-147.442167 M 18.735453,34.273895 c -0.07998,64.788085 -4.451415,122.533775 -2.647167,124.243245 1.887705,1.78855 -4.789109,1.90023 45.617402,1.91192 38.773492,0.009 45.809682,-0.0459 46.569432,-0.36335 1.13211,-0.47302 2.15558,-1.41711 2.78208,-2.56626 0.47032,-0.8627 0.49117,-3.08411 0.55709,-59.332228 0.0452,-38.60107 -0.0219,-58.771742 -0.19788,-59.425152 -0.81954,-3.04355 -4.18178,-5.02449 -7.47838,-4.40604"
   transform="translate(-4.1686362,-2.298915)" />
    </g>
  </g>
</svg>
