<svg id="visual" viewBox="0 0 900 600" width="900" height="600" xmlns="http://www.w3.org/2000/svg" xmlns:xlink="http://www.w3.org/1999/xlink" version="1.1"><rect x="0" y="0" width="900" height="600" fill="#2e4028"></rect><defs><linearGradient id="grad1_0" x1="33.3%" y1="0%" x2="100%" y2="100%"><stop offset="20%" stop-color="#262f1b" stop-opacity="1"></stop><stop offset="80%" stop-color="#262f1b" stop-opacity="1"></stop></linearGradient></defs><defs><linearGradient id="grad1_1" x1="33.3%" y1="0%" x2="100%" y2="100%"><stop offset="20%" stop-color="#262f1b" stop-opacity="1"></stop><stop offset="80%" stop-color="#2e4028" stop-opacity="1"></stop></linearGradient></defs><defs><linearGradient id="grad2_0" x1="0%" y1="0%" x2="66.7%" y2="100%"><stop offset="20%" stop-color="#262f1b" stop-opacity="1"></stop><stop offset="80%" stop-color="#262f1b" stop-opacity="1"></stop></linearGradient></defs><defs><linearGradient id="grad2_1" x1="0%" y1="0%" x2="66.7%" y2="100%"><stop offset="20%" stop-color="#2e4028" stop-opacity="1"></stop><stop offset="80%" stop-color="#262f1b" stop-opacity="1"></stop></linearGradient></defs><g transform="translate(900, 0)"><path d="M0 405.6C-32.7 383.5 -65.4 361.3 -91.4 341C-117.4 320.6 -136.6 302 -172 297.9C-207.4 293.8 -258.8 304.3 -286.8 286.8C-314.8 269.4 -319.5 224 -324.8 187.5C-330.1 151 -336.1 123.5 -349.7 93.7C-363.3 63.9 -384.4 32 -405.6 0L0 0Z" fill="#2a3721"></path><path d="M0 202.8C-16.3 191.7 -32.7 180.7 -45.7 170.5C-58.7 160.3 -68.3 151 -86 149C-103.7 146.9 -129.4 152.1 -143.4 143.4C-157.4 134.7 -159.7 112 -162.4 93.8C-165 75.5 -168 61.7 -174.8 46.8C-181.6 32 -192.2 16 -202.8 0L0 0Z" fill="#262f1b"></path></g><g transform="translate(0, 600)"><path d="M0 -405.6C34.8 -402.7 69.6 -399.7 105 -391.8C140.4 -383.9 176.3 -371.1 200 -346.4C223.7 -321.7 235.2 -285.2 260.9 -260.9C286.6 -236.7 326.4 -224.8 344.7 -199C362.9 -173.2 359.5 -133.6 366.1 -98.1C372.6 -62.6 389.1 -31.3 405.6 0L0 0Z" fill="#2a3721"></path><path d="M0 -202.8C17.4 -201.3 34.8 -199.8 52.5 -195.9C70.2 -192 88.1 -185.5 100 -173.2C111.9 -160.9 117.6 -142.6 130.5 -130.5C143.3 -118.3 163.2 -112.4 172.3 -99.5C181.5 -86.6 179.8 -66.8 183 -49C186.3 -31.3 194.6 -15.7 202.8 0L0 0Z" fill="#262f1b"></path></g></svg>