<?xml version="1.0" encoding="UTF-8" standalone="no"?>

<svg xmlns="http://www.w3.org/2000/svg"

   viewBox="0 0 8.466666 8.466667">
<style>
    path {
        fill: #d35014;
    }
</style><g
   transform="matrix(0.49648414,0,0,0.49247746,0.08194213,0.04781272)"><path
     d="M 7.6817828,16.428876 C 6.0364952,16.222294 4.7116697,15.647423 3.3491426,14.548857 2.2890147,13.694106 1.3197098,12.232214 0.90835821,10.867697 0.74197242,10.315773 0.58828526,9.5659444 0.58828526,9.3060878 V 9.1536984 H 1.0577079 1.5271307 l 0.0011,0.1450307 c 0.00156,0.2024315 0.1751141,0.9743609 0.3112255,1.3843839 0.8634318,2.601015 3.3096648,4.531666 6.0778806,4.796877 3.1049092,0.297464 6.1853112,-1.78613 7.1962072,-4.86754 0.09668,-0.294707 0.202544,-0.6900882 0.235249,-0.8786288 0.113536,-0.6545189 0.04614,-0.5862417 0.561495,-0.5689696 l 0.453987,0.015217 -0.01594,0.2373232 c -0.02496,0.3714515 -0.211642,1.1893112 -0.384543,1.6846422 -0.381184,1.092014 -0.989727,2.062141 -1.840512,2.934106 -1.245136,1.276129 -2.688495,2.049156 -4.3275654,2.317733 -0.6163404,0.100985 -1.6226312,0.136695 -2.1139575,0.07502 z M 6.5463406,13.454168 C 5.2849108,12.842916 4.5190283,11.910339 4.2566628,10.666136 4.0951222,9.9000706 4.2807618,8.8782928 4.6998807,8.2266405 5.0434924,7.6923857 5.78392,7.0449022 6.051843,7.0443867 6.2071601,7.0440857 6.2011232,7.0867677 5.990589,7.4774377 5.5750103,8.2485914 5.6219959,9.1820343 6.104352,9.7375206 l 0.1588427,0.182925 -0.1352933,0.3945194 c -0.1894258,0.552368 -0.1948071,1.375333 -0.012707,1.943341 0.138989,0.433539 0.407908,0.882348 0.7072745,1.180389 0.109256,0.108777 0.176469,0.197771 0.1493636,0.197771 -0.027106,0 -0.2185766,-0.08204 -0.4254919,-0.182298 z m 3.5554184,0.02179 c 0.464867,-0.412707 0.794376,-1.165528 0.845338,-1.931332 0.03038,-0.456642 -0.01566,-0.789323 -0.197706,-1.428001 -0.06174,-0.2165885 -0.05862,-0.229152 0.09775,-0.3955386 0.520166,-0.5534512 0.603854,-1.4824778 0.204589,-2.2711328 -0.149429,-0.2951575 -0.167807,-0.3643147 -0.103445,-0.3892869 0.106302,-0.041245 0.25562,0.03452 0.580652,0.2946128 0.537407,0.4300393 0.974678,1.1294269 1.134428,1.814446 0.101084,0.433429 0.0991,1.2816915 -0.0038,1.6903645 -0.269502,1.068749 -1.023084,1.956694 -2.133873,2.514345 -0.287494,0.144332 -0.5411356,0.262335 -0.5636474,0.262229 -0.022503,-1.06e-4 0.040422,-0.07243 0.1398744,-0.160713 z m -2.3064931,-0.0082 C 7.4724958,13.345394 6.9725648,12.882402 6.8098921,12.555196 6.3415819,11.613221 6.426213,10.62656 7.1089977,9.0681193 7.638013,7.8606522 7.699747,7.5984856 7.7035672,6.5431454 7.7065348,5.7228598 7.6946299,5.601728 7.5636102,5.1192073 7.4814228,4.8165271 7.2871937,4.3221066 7.1077521,3.9587934 6.9357906,3.6106272 6.7950955,3.3080405 6.7950955,3.2863784 c 0,-0.2068848 0.9183993,0.4130858 1.5416282,1.0406845 1.7303943,1.742529 2.0932533,3.934336 0.9084694,5.4875395 -0.1935053,0.2536766 -0.4680907,0.5436696 -0.4680907,0.4943536 0,-0.01285 0.093885,-0.212335 0.2086323,-0.4432894 C 9.1004826,9.6347128 9.193604,9.3741054 9.1926714,9.2865395 9.1910591,9.1350716 9.1635092,9.155783 8.6262012,9.712406 c -0.8614881,0.892458 -1.1723994,1.51383 -1.171803,2.341906 3.979e-4,0.559536 0.1348403,0.939443 0.4442587,1.255431 0.1194639,0.122009 0.2075553,0.231154 0.1957592,0.242564 -0.011803,0.0114 -0.1464138,-0.02665 -0.2991502,-0.08453 z m 1.2224762,-0.07541 c 0.3392742,-0.322803 0.4088587,-0.501737 0.38702,-0.995222 -0.037148,-0.839424 -0.02221,-0.991108 0.1269069,-1.288648 0.1474651,-0.294249 0.646067,-0.826685 0.708052,-0.7561 0.07742,0.08818 0.159228,0.427173 0.187919,0.778778 0.09186,1.125492 -0.5367342,2.146623 -1.4940635,2.427121 -0.1120721,0.03285 -0.1002457,0.0095 0.084165,-0.165933 z M 0.56431703,7.6110991 C 0.74001281,6.0805202 1.210776,4.8528586 2.0587758,3.7138321 3.3149522,2.0265464 5.139213,0.91082898 7.2341049,0.54860195 7.7671089,0.45643998 8.001127,0.4441421 8.7510235,0.46888474 c 1.2282856,0.0405261 1.9639395,0.21605927 3.0396715,0.72528896 2.569714,1.2164498 4.301573,3.6142768 4.577564,6.337818 l 0.03607,0.3559845 H 15.936734 15.469141 L 15.406869,7.4378935 C 15.205737,5.9841104 14.522051,4.6220785 13.447412,3.5342832 12.40904,2.4831951 11.262617,1.8542604 9.792666,1.5292627 9.149787,1.3871258 7.8204713,1.3988627 7.110304,1.5529466 4.6028525,2.0969818 2.5994679,3.8771636 1.8208531,6.2530853 1.7210441,6.5576498 1.6118253,6.996697 1.5781438,7.2287465 1.4710965,7.9662547 1.5394185,7.8879766 1.0027599,7.8879766 H 0.53253418 Z"
     /></g></svg>
