<?xml version="1.0" encoding="UTF-8" standalone="no"?>
<!-- Created with Inkscape (http://www.inkscape.org/) -->

<svg
   width="480"
   height="663"
   viewBox="0 0 127 175.41875"
   version="1.1"
   id="svg1"
   xml:space="preserve"
   xmlns="http://www.w3.org/2000/svg"
   xmlns:svg="http://www.w3.org/2000/svg"><defs
     id="defs1" /><g
     id="layer1"><path
       style="fill:currentColor"
       d="m 8.9754961,174.9605 c -2.919692,-0.78459 -5.939014,-3.19714 -7.376453,-5.89405 -1.749826,-3.28301 -1.639024,1.78832 -1.562712,-71.523735 l 0.06921,-66.488272 0.602925,-1.5875 c 1.199405,-3.15803 3.473931,-5.83159 6.195147,-7.28198 2.453645,-1.30778 4.3387669,-1.5718 11.2597409,-1.57697 l 6.151562,-0.005 v 3.384 c 0,3.71003 0.346628,5.52576 1.507471,7.89651 1.394109,2.84714 4.831923,6.10685 8.017529,7.60217 l 1.719792,0.80727 14.419791,0.2246 c 7.93089,0.12353 20.253854,0.16665 27.384374,0.0958 14.18695,-0.14092 14.37913,-0.16084 17.24476,-1.78721 3.09869,-1.75863 5.914697,-5.19618 7.137797,-8.7132 0.50836,-1.46179 0.66898,-2.59765 0.80163,-5.66901 l 0.1659,-3.84094 5.84579,0.002 c 3.21518,10e-4 6.61969,0.12268 7.56558,0.27018 5.13337,0.80049 9.35421,4.96554 10.47386,10.33542 0.32843,1.57514 0.37233,11.131882 0.31199,67.910152 l -0.0702,66.077055 -0.56741,1.65315 c -1.43554,4.18242 -4.79975,7.31785 -8.85487,8.2527 -0.76315,0.17594 -19.295947,0.26392 -54.077721,0.25672 -45.724161,-0.009 -53.113579,-0.0639 -54.3654509,-0.40027 z M 109.81193,160.98779 c 1.13211,-0.47302 2.15558,-1.41711 2.78208,-2.56626 0.47032,-0.8627 0.49117,-3.08411 0.55709,-59.332235 0.0452,-38.60107 -0.0219,-58.771742 -0.19788,-59.425152 -0.81954,-3.04355 -4.18178,-5.02449 -7.47838,-4.40604 -0.77597,0.14557 -0.96206,0.33037 -1.26889,1.2601 -0.94203,2.85435 -4.490157,6.582722 -7.714127,8.105972 -4.02434,1.90141 -1.60082,1.75953 -31.69566,1.85561 -19.811254,0.0633 -27.654561,0.003 -29.104165,-0.22351 -5.663638,-0.88504 -10.114904,-4.11242 -12.84963,-9.316612 l -0.974908,-1.85525 -2.107322,0.14444 c -2.63027,0.18028 -4.168719,1.02858 -5.360104,2.95556 l -0.800745,1.29514 -0.07237,58.625992 c -0.07998,64.788085 -0.207252,59.879635 1.596996,61.589105 1.887705,1.78855 -2.287927,1.6448 48.118584,1.65649 38.773491,0.009 45.809681,-0.0459 46.569431,-0.36335 z M 58.710749,146.1021 C 41.155229,144.32575 25.68719,134.1755 18.662528,119.82215 l -1.618619,-3.30729 -0.0025,-10.31875 c -0.0027,-10.892765 -0.0073,-10.843295 1.267673,-13.626045 0.538096,-1.17448 2.224114,-3.54874 3.134959,-4.41467 1.219966,-1.15981 3.658491,-2.58451 5.127782,-2.99588 0.807004,-0.22595 1.364078,-0.57626 1.637924,-1.02999 2.35936,-3.90919 4.782697,-6.35466 7.845027,-7.91667 1.182931,-0.60338 2.567502,-1.16496 3.076825,-1.24795 0.509323,-0.083 1.40229,-0.26053 1.98437,-0.39452 0.58209,-0.134 1.61649,-0.24654 2.29867,-0.2501 1.16817,-0.006 1.29117,-0.0773 2.11422,-1.22335 1.24839,-1.73834 4.11578,-4.07776 6.40125,-5.22259 3.02713,-1.51634 4.51462,-1.82152 8.80387,-1.80622 3.464094,0.0123 3.779534,-0.0276 4.233334,-0.53598 1.39323,-1.56085 5.0866,-3.75618 7.3695,-4.38041 3.50266,-0.95776 5.2653,-1.05688 8.46666,-0.47613 2.74246,0.4975 3.31942,0.68323 5.62465,1.81067 3.46451,1.69439 4.78919,2.63582 8.39827,5.9685 6.120747,5.65198 9.801427,11.57649 11.365687,18.29446 0.33451,1.4366 0.40058,4.3992 0.40123,17.991665 7.3e-4,15.00509 -0.0377,16.42637 -0.49341,18.25625 -1.61793,6.49645 -4.81339,10.25352 -13.378337,15.72958 -5.55655,3.55263 -14.1931,6.4156 -21.97225,7.28369 -2.21137,0.24677 -9.925244,0.30551 -12.038544,0.0917 z m 32.052034,-13.8119 c 0.79377,-0.2731 1.97327,-0.76597 2.62111,-1.09527 1.80259,-0.91626 4.24667,-3.61264 5.43829,-5.99967 l 1.031272,-2.06581 V 104.8732 c 0,-20.044175 0.0647,-19.138885 -1.635632,-22.886465 -1.52123,-3.35281 -4.7827,-7.4057 -7.309,-9.08256 -0.77519,-0.51454 -1.74215,-1.41563 -2.14879,-2.00242 -2.40023,-3.46352 -7.67978,-5.52707 -12.43406,-4.85993 -4.57713,0.64227 -8.61939,4.13685 -8.61939,7.45155 v 1.04924 l -1.31303,-0.8836 c -1.55808,-1.04851 -3.262194,-1.6249 -5.433854,-1.83792 -6.07691,-0.59609 -11.78056,3.74032 -12.23924,9.30533 l -0.13626,1.65323 -0.58892,-0.63545 c -1.16317,-1.25509 -2.19166,-1.58763 -4.89495,-1.58269 -2.39638,0.004 -2.60319,0.0517 -4.436944,1.0151 -3.25558,1.71039 -5.277807,4.70196 -5.542283,8.19895 -0.08322,1.10041 -0.168488,2.00075 -0.189475,2.00075 -0.02099,0 -0.505226,-0.23812 -1.076088,-0.52917 -2.790443,-1.42264 -6.309801,0.15482 -8.081119,3.62217 l -0.650131,1.27263 v 10.318755 10.31875 l 0.848403,1.78498 c 1.56814,3.29927 4.563499,5.67962 7.5024,5.96201 2.236402,0.21489 2.100239,1.01562 2.100239,-12.35073 0,-13.109215 -0.05854,-12.66195 1.756599,-13.420365 1.294564,-0.5409 3.163436,0.0503 3.707279,1.172785 0.119155,0.24593 0.27798,4.07856 0.352946,8.51694 0.118084,6.99126 0.19765,8.18193 0.59533,8.90883 1.019894,1.86422 3.490834,2.7581 5.619354,2.03285 1.6149,-0.55026 3.17327,-2.04401 3.54816,-3.40105 0.19041,-0.68923 0.29289,-4.68481 0.29386,-11.45637 0.002,-11.169445 0.0264,-11.390725 1.38175,-12.340075 0.99799,-0.69903 2.70987,-0.53338 3.70878,0.35888 l 0.86407,0.77181 0.0751,10.208395 c 0.0413,5.61462 0.17557,10.2084 0.29833,10.2084 0.12275,0 0.3818,-0.19112 0.57566,-0.4247 0.56056,-0.67544 3.17591,-2.35065 4.45139,-2.85126 1.77656,-0.69727 3.371194,-0.92785 6.739334,-0.97448 1.69053,-0.0234 3.07369,-0.0884 3.07369,-0.1444 0,-0.056 -0.41847,-0.68433 -0.92993,-1.39625 -1.58453,-2.20554 -1.66279,-2.78068 -1.75096,-12.866425 -0.0767,-8.7782 -0.0603,-9.13438 0.45244,-9.82117 1.20269,-1.61087 3.75793,-1.6641 4.87063,-0.10145 0.50658,0.71143 0.53782,1.2031 0.59976,9.4398 l 0.0653,8.689295 1.05833,1.58316 c 0.83377,1.24725 1.37155,1.7376 2.53444,2.31094 2.629,1.29618 6.12167,0.90783 8.55969,-0.95173 1.17825,-0.8987 2.64677,-3.18996 3.02079,-4.71318 0.20697,-0.84292 0.30487,-5.027405 0.30487,-13.030735 0,-7.57507 0.0933,-11.78909 0.261,-11.78909 0.66626,0 3.66783,3.42584 4.52252,5.16177 l 0.90502,1.83814 v 9.66307 9.663065 l -1.15328,2.24684 c -0.63431,1.23577 -1.5206,2.66452 -1.96952,3.175 l -0.81623,0.92816 2.03566,0.0773 2.03567,0.0773 v 2.767 2.76699 h -14.94612 c -16.896124,0 -16.20982,-0.0767 -19.072444,2.13179 -1.11957,0.86374 -1.65387,1.54332 -2.39941,3.05183 -0.90004,1.82109 -0.95143,2.06049 -0.83427,3.88611 0.23556,3.67046 2.34382,6.3898 6.192984,7.98801 l 1.55821,0.64698 11.79869,0.0112 c 10.86853,0.0103 11.91246,-0.028 13.24189,-0.48535 z M 37.094246,33.871743 c -2.625106,-0.91219 -4.516456,-2.65152 -5.70196,-5.24366 -0.495331,-1.08306 -0.599075,-1.85243 -0.680694,-5.04812 l -0.09629,-3.77031 h 8.187757 8.18776 l -0.009,-3.10885 c -0.008,-2.67476 0.0891,-3.40441 0.69466,-5.22552 0.89925,-2.70409 2.34992,-4.904689 4.68591,-7.108349 3.02947,-2.857846 6.93356,-4.40593898 11.08727,-4.39643598 5.100704,0.01167 9.312754,1.98710198 12.683564,5.94852998 2.77341,3.259345 3.85711,6.487985 3.70171,11.028315 l -0.098,2.86231 h 8.14014 c 6.3274,0 8.14361,0.0737 8.15573,0.33073 0.14151,3.00038 -0.0601,7.07491 -0.40081,8.09944 -0.68704,2.06612 -2.49319,4.09065 -4.55508,5.10581 l -1.7951,0.88381 -25.40574,0.0602 c -23.907347,0.0567 -25.486885,0.032 -26.781615,-0.4179 z m 29.042247,-13.46678 c 2.45116,-1.24264 3.62401,-3.94976 2.89562,-6.68349 -0.42625,-1.59974 -2.34945,-3.47484 -4.05323,-3.9518705 -4.290034,-1.2011295 -8.239094,2.7578205 -7.072504,7.0902105 0.39971,1.48439 2.09991,3.33065 3.53565,3.83938 1.7228,0.61045 3.077444,0.52555 4.694464,-0.29423 z"
       id="path1" /></g></svg>
